# xmcd CD database file
#
# Track frame offsets:
#	150
#	23288
#	45437
#	66337
#	87416
#	118167
#	139019
#	159042
#	182173
#
# Disc length: 2791 seconds
#
# Revision: 0
# Processed by: cddbd v1.5.1PL2 Copyright (c) Steve Scherf et al.
# Submitted via: CDex 1.51
#
DISCID=6a0ae509
DTITLE=Abdul Raheem - Che-Che
DYEAR=1900
DGENRE=Jazz
TTITLE0=Che-Che
TTITLE1=Georgi
TTITLE2=Kilikilbo
TTITLE3=African Queen
TTITLE4=Mother
TTITLE5=Tayaman
TTITLE6=Alaiye
TTITLE7=Gege Iyawo
TTITLE8=Che-Che (Instrumental)
EXTD=
EXTT0=
EXTT1=
EXTT2=
EXTT3=
EXTT4=
EXTT5=
EXTT6=
EXTT7=
EXTT8=
PLAYORDER=
